GIL04_slow3_ik
nRows=3
nColumns=375

# SIMM Motion File Header:
name GIL04_slow3_ik
datacolumns 375
datarows 3
otherdata 1
range 0.70000000 0.71667000
endheader
time	pelvis_tx	pelvis_ty	pelvis_tz	pelvis_tilt	pelvis_list	pelvis_rotation	hip_flexion_r	hip_adduction_r	hip_rotation_r	knee_angle_r	ankle_angle_r	hip_flexion_l	hip_adduction_l	hip_rotation_l	knee_angle_l	ankle_angle_l	lumbar_extension	lumbar_bending	lumbar_rotation	subtalar_angle_r	mtp_angle_r	subtalar_angle_l	mtp_angle_l	asis_r_px	asis_r_py	asis_r_pz	asis_l_px	asis_l_py	asis_l_pz	midasis_px	midasis_py	midasis_pz	psis_r_px	psis_r_py	psis_r_pz	psis_l_px	psis_l_py	psis_l_pz	hip_r_px	hip_r_py	hip_r_pz	hip_l_px	hip_l_py	hip_l_pz	midhip_px	midhip_py	midhip_pz	epicondLat_r_px	epicondLat_r_py	epicondLat_r_pz	epicondMed_r_px	epicondMed_r_py	epicondMed_r_pz	thighwand_r_px	thighwand_r_py	thighwand_r_pz	upperleg1_r_px	upperleg1_r_py	upperleg1_r_pz	upperleg2_r_px	upperleg2_r_py	upperleg2_r_pz	malleolusLat_r_px	malleolusLat_r_py	malleolusLat_r_pz	malleolusMedv_r_px	malleolusMedv_r_py	malleolusMedv_r_pz	shankwand_r_px	shankwand_r_py	shankwand_r_pz	lowerleg1_r_px	lowerleg1_r_py	lowerleg1_r_pz	knee_r_px	knee_r_py	knee_r_pz	ankle_r_px	ankle_r_py	ankle_r_pz	toe_r_px	toe_r_py	toe_r_pz	epicondLat_l_px	epicondLat_l_py	epicondLat_l_pz	epicondMed_l_px	epicondMed_l_py	epicondMed_l_pz	thighwand_l_px	thighwand_l_py	thighwand_l_pz	upperleg1_l_px	upperleg1_l_py	upperleg1_l_pz	upperleg2_l_px	upperleg2_l_py	upperleg2_l_pz	malleolusLat_l_px	malleolusLat_l_py	malleolusLat_l_pz	malleolusMedv_l_px	malleolusMedv_l_py	malleolusMedv_l_pz	shankwand_l_px	shankwand_l_py	shankwand_l_pz	lowerleg1_l_px	lowerleg1_l_py	lowerleg1_l_pz	knee_l_px	knee_l_py	knee_l_pz	ankle_l_px	ankle_l_py	ankle_l_pz	toe_l_px	toe_l_py	toe_l_pz	subclavicle_r_px	subclavicle_r_py	subclavicle_r_pz	subclavicle_l_px	subclavicle_l_py	subclavicle_l_pz	neck_px	neck_py	neck_pz	sternalnotch_px	sternalnotch_py	sternalnotch_pz	xyphoidprocess_px	xyphoidprocess_py	xyphoidprocess_pz	midhip_tx	midhip_ty	midhip_tz	hip_r_tx	hip_r_ty	hip_r_tz	hip_l_tx	hip_l_ty	hip_l_tz	knee_r_tx	knee_r_ty	knee_r_tz	knee_l_tx	knee_l_ty	knee_l_tz	ankle_r_tx	ankle_r_ty	ankle_r_tz	ankle_l_tx	ankle_l_ty	ankle_l_tz	midasis_tx	midasis_ty	midasis_tz	asis_r_tx	asis_r_ty	asis_r_tz	asis_l_tx	asis_l_ty	asis_l_tz	psis_r_tx	psis_r_ty	psis_r_tz	psis_l_tx	psis_l_ty	psis_l_tz	epicondLat_r_tx	epicondLat_r_ty	epicondLat_r_tz	epicondLat_l_tx	epicondLat_l_ty	epicondLat_l_tz	epicondMed_r_tx	epicondMed_r_ty	epicondMed_r_tz	epicondMed_l_tx	epicondMed_l_ty	epicondMed_l_tz	malleolusLat_r_tx	malleolusLat_r_ty	malleolusLat_r_tz	malleolusLat_l_tx	malleolusLat_l_ty	malleolusLat_l_tz	malleolusMedv_r_tx	malleolusMedv_r_ty	malleolusMedv_r_tz	malleolusMedv_l_tx	malleolusMedv_l_ty	malleolusMedv_l_tz	neck_tx	neck_ty	neck_tz	subclavicle_r_tx	subclavicle_r_ty	subclavicle_r_tz	subclavicle_l_tx	subclavicle_l_ty	subclavicle_l_tz	sternalnotch_tx	sternalnotch_ty	sternalnotch_tz	xyphoidprocess_tx	xyphoidprocess_ty	xyphoidprocess_tz	thighwand_r_tx	thighwand_r_ty	thighwand_r_tz	thighwand_l_tx	thighwand_l_ty	thighwand_l_tz	upperleg1_r_tx	upperleg1_r_ty	upperleg1_r_tz	upperleg1_l_tx	upperleg1_l_ty	upperleg1_l_tz	upperleg2_r_tx	upperleg2_r_ty	upperleg2_r_tz	upperleg2_l_tx	upperleg2_l_ty	upperleg2_l_tz	shankwand_r_tx	shankwand_r_ty	shankwand_r_tz	shankwand_l_tx	shankwand_l_ty	shankwand_l_tz	lowerleg1_r_tx	lowerleg1_r_ty	lowerleg1_r_tz	lowerleg1_l_tx	lowerleg1_l_ty	lowerleg1_l_tz	toe_r_tx	toe_r_ty	toe_r_tz	toe_l_tx	toe_l_ty	toe_l_tz	ground_force_vx	ground_force_vy	ground_force_vz	ground_force_px	ground_force_py	ground_force_pz	ground_force_vx	ground_force_vy	ground_force_vz	ground_force_px	ground_force_py	ground_force_pz	ground_torque_x	ground_torque_y	ground_torque_z	ground_torque_x	ground_torque_y	ground_torque_z	ground_marker_px	ground_marker_py	ground_marker_pz	ground_marker_px	ground_marker_py	ground_marker_pz	ground_marker_px	ground_marker_py	ground_marker_pz	ground_marker_px	ground_marker_py	ground_marker_pz	ground_marker_px	ground_marker_py	ground_marker_pz	ground_marker_px	ground_marker_py	ground_marker_pz	ground_marker_px	ground_marker_py	ground_marker_pz	ground_marker_px	ground_marker_py	ground_marker_pz	ground_marker_px	ground_marker_py	ground_marker_pz	ground_marker_px	ground_marker_py	ground_marker_pz	ground_marker_px	ground_marker_py	ground_marker_pz	ground_marker_px	ground_marker_py	ground_marker_pz	ground_marker_px	ground_marker_py	ground_marker_pz	ground_marker_px	ground_marker_py	ground_marker_pz	ground_marker_px	ground_marker_py	ground_marker_pz	ground_marker_px	ground_marker_py	ground_marker_pz	ground_marker_px	ground_marker_py	ground_marker_pz	ground_marker_px	ground_marker_py	ground_marker_pz	ground_marker_px	ground_marker_py	ground_marker_pz	ground_marker_px	ground_marker_py	ground_marker_pz	ground_marker_px	ground_marker_py	ground_marker_pz	ground_marker_px	ground_marker_py	ground_marker_pz	ground_marker_px	ground_marker_py	ground_marker_pz	ground_marker_px	ground_marker_py	ground_marker_pz	ground_marker_px	ground_marker_py	ground_marker_pz	ground_marker_px	ground_marker_py	ground_marker_pz	ground_marker_px	ground_marker_py	ground_marker_pz	ground_marker_px	ground_marker_py	ground_marker_pz	ground_marker_px	ground_marker_py	ground_marker_pz	ground_marker_px	ground_marker_py	ground_marker_pz	ground_marker_px	ground_marker_py	ground_marker_pz	ground_marker_px	ground_marker_py	ground_marker_pz	ground_marker_px	ground_marker_py	ground_marker_pz	ground_marker_px	ground_marker_py	ground_marker_pz	ground_marker_px	ground_marker_py	ground_marker_pz	ground_marker_px	ground_marker_py	ground_marker_pz	ground_marker_px	ground_marker_py	ground_marker_pz
      0.70000000	      0.62857230	      0.71960324	     -0.25034333	     -3.70353620	      3.25782903	      1.25044866	    -11.82137829	     -2.04121515	     -0.18850032	    -27.12790262	     -6.81406257	     21.22979160	      6.68059005	     -5.19008290	     -0.71816787	    -14.24312529	     -3.51595796	     -6.80884880	      4.95059732	      0.00000000	      0.00000000	      0.00000000	      0.00000000	      0.73382254	      0.69680056	     -0.17352286	      0.73615458	      0.69824623	     -0.36033480	      0.63876675	      0.71895606	     -0.25056594	      0.60472646	      0.77496576	     -0.24861179	      0.60368951	      0.77060722	     -0.30336348	      0.57508276	      0.67126834	     -0.19113413	      0.57287587	      0.67835032	     -0.31278712	      0.57397932	      0.67480933	     -0.25196062	      0.52098003	      0.33367256	     -0.13873787	      0.51738482	      0.33533118	     -0.23917174	      0.56144321	      0.43074737	     -0.06793535	      0.61524374	      0.47014157	     -0.13823853	      0.59132412	      0.38919392	     -0.14805406	      0.28166256	      0.09453890	     -0.13151238	      0.28892866	      0.09531501	     -0.19118007	      0.34261687	      0.18665123	     -0.06672125	      0.38764951	      0.21447644	     -0.13031261	      0.48761141	      0.35427808	     -0.19626410	      0.27133941	      0.11896351	     -0.19636925	      0.32518428	     -0.00387824	     -0.15993836	      0.71012677	      0.36204251	     -0.36811917	      0.72125704	      0.36042301	     -0.26459788	      0.82026707	      0.48857435	     -0.36578706	      0.74837673	      0.53279760	     -0.30551888	      0.75330774	      0.44562359	     -0.29655620	      0.77055796	      0.04870020	     -0.35427935	      0.77720658	      0.05387674	     -0.29116165	      0.83606121	      0.16606889	     -0.36641154	      0.76701634	      0.20772917	     -0.33917122	      0.66780737	      0.36631174	     -0.29427278	      0.76026893	      0.06091378	     -0.27612114	      0.87412831	      0.02036493	     -0.33197988	      0.61831183	      1.11829772	     -0.20567244	      0.61519772	      1.12453078	     -0.32086304	      0.53588106	      1.12151313	     -0.26023943	      0.61798218	      1.10915251	     -0.26654448	      0.70570690	      0.99483638	     -0.27443617	      0.58119800	      0.66762800	     -0.25395000	      0.57497300	      0.67035400	     -0.18741000	      0.57488300	      0.67728100	     -0.31304800	      0.49165600	      0.36738200	     -0.19489200	      0.66962800	      0.37444900	     -0.28939900	      0.26888100	      0.12313800	     -0.18569100	      0.76061100	      0.06224200	     -0.29309700	      0.64255100	      0.73518200	     -0.24689400	      0.64261900	      0.72995800	     -0.15213800	      0.64248300	      0.74040600	     -0.34165000	      0.49964700	      0.77823800	     -0.22648300	      0.49519000	      0.77473700	     -0.28124300	      0.49184700	      0.36608200	     -0.14440900	      0.66716700	      0.36979600	     -0.33912100	      0.49778200	      0.35868100	     -0.24502300	      0.68286100	      0.37642800	     -0.23347100	      0.26388600	      0.12892200	     -0.15307400	      0.75024100	      0.05960900	     -0.32589600	      0.27282800	      0.13277200	     -0.21238500	      0.75754000	      0.06707800	     -0.26458700	      0.54291400	      1.12386700	     -0.26103900	      0.62628000	      1.08031200	     -0.19796800	      0.61763500	      1.07732100	     -0.32766000	      0.61629700	      1.06717000	     -0.26487900	      0.63649300	      0.92474900	     -0.26205900	      0.51706000	      0.45158200	     -0.06574100	      0.76519200	      0.50720200	     -0.33922600	      0.56555400	      0.50208800	     -0.13268000	      0.68195400	      0.54791500	     -0.28439800	      0.55719700	      0.41941900	     -0.14770200	      0.70133500	      0.46440900	     -0.26957800	      0.32265700	      0.21974400	     -0.08234500	      0.80734400	      0.18057400	     -0.34361000	      0.36685400	      0.24887900	     -0.14276300	      0.73851500	      0.21963700	     -0.31507000	      0.31626500	      0.04300500	     -0.19526000	      0.85251400	      0.04561800	     -0.30939100	     11.53621583	     47.66250415	      4.11807324	      0.33384457	      0.00000000	     -0.20859827	    -40.07881694	    266.93833269	      7.32746243	      0.73845148	      0.00000000	     -0.29116980	      0.00000000	     -0.00168439	      0.00000000	      0.00000000	      0.08772952	      0.00000000	      0.58119828	      0.66762769	     -0.25395033	      0.57497346	      0.67035437	     -0.18740956	      0.57488334	      0.67728138	     -0.31304762	      0.49165559	      0.36738178	     -0.19489160	      0.66962826	      0.37444907	     -0.28939891	      0.26888058	      0.12313789	     -0.18569055	      0.76061058	      0.06224198	     -0.29309696	      0.64255077	      0.73518217	     -0.24689379	      0.64261872	      0.72995782	     -0.15213759	      0.64248282	      0.74040645	     -0.34164998	      0.49964717	      0.77823836	     -0.22648254	      0.49518988	      0.77473676	     -0.28124291	      0.49184692	      0.36608246	     -0.14440867	      0.66716725	      0.36979625	     -0.33912107	      0.49778193	      0.35868081	     -0.24502310	      0.68286133	      0.37642828	     -0.23347077	      0.26388568	      0.12892245	     -0.15307400	      0.75024146	      0.05960874	     -0.32589629	      0.27282822	      0.13277163	     -0.21238451	      0.75753963	      0.06707796	     -0.26458710	      0.54291391	      1.12386668	     -0.26103878	      0.62627989	      1.08031166	     -0.19796786	      0.61763465	      1.07732141	     -0.32765976	      0.61629725	      1.06716990	     -0.26487914	      0.63649297	      0.92474937	     -0.26205906	      0.51706022	      0.45158249	     -0.06574087	      0.76519245	      0.50720215	     -0.33922601	      0.56555432	      0.50208783	     -0.13267954	      0.68195432	      0.54791480	     -0.28439760	      0.55719745	      0.41941923	     -0.14770199	      0.70133471	      0.46440893	     -0.26957819	      0.32265690	      0.21974410	     -0.08234495	      0.80734450	      0.18057385	     -0.34360954	      0.36685434	      0.24887890	     -0.14276336	      0.73851526	      0.21963698	     -0.31507042	      0.31626451	      0.04300489	     -0.19526021	      0.85251367	      0.04561755	     -0.30939096
      0.70833000	      0.63650789	      0.72074795	     -0.25175146	     -3.86376164	      3.53930045	      1.26950540	    -10.56319481	     -2.74171521	     -0.48817707	    -29.48058523	     -9.24374808	     20.96925605	      7.02234509	     -5.32730215	     -1.19367631	    -13.96849527	     -3.52462125	     -7.15306221	      5.03036759	      0.00000000	      0.00000000	      0.00000000	      0.00000000	      0.74169443	      0.69727513	     -0.17504567	      0.74403043	      0.69963413	     -0.36184826	      0.64670051	      0.72007357	     -0.25197740	      0.61281587	      0.77616727	     -0.24974701	      0.61176681	      0.77208127	     -0.30451949	      0.58288436	      0.67227082	     -0.19278022	      0.58069711	      0.67995780	     -0.31439684	      0.58179074	      0.67611431	     -0.25358853	      0.53518962	      0.33410387	     -0.13790117	      0.53189565	      0.33490832	     -0.23835585	      0.57352079	      0.43249840	     -0.06773692	      0.62677702	      0.47238386	     -0.13817739	      0.60447018	      0.39091128	     -0.14743141	      0.29018316	      0.09857895	     -0.12920795	      0.29760581	      0.09867278	     -0.18886134	      0.35295672	      0.18992317	     -0.06506970	      0.39872988	      0.21621024	     -0.12878664	      0.50184079	      0.35323871	     -0.19570312	      0.28054321	      0.12264827	     -0.19430235	      0.32654549	     -0.00329798	     -0.15772492	      0.71554254	      0.36254952	     -0.36934010	      0.72674241	      0.36100874	     -0.26582511	      0.82662477	      0.48826019	     -0.36729226	      0.75511383	      0.53311224	     -0.30703740	      0.75940199	      0.44591799	     -0.29794194	      0.77110383	      0.04792079	     -0.35480489	      0.77784140	      0.05312758	     -0.29169912	      0.83844075	      0.16421992	     -0.36719549	      0.77006236	      0.20701779	     -0.34003769	      0.67336231	      0.36723489	     -0.29546970	      0.76101837	      0.06046201	     -0.27667204	      0.87433863	      0.01856069	     -0.33262886	      0.62746837	      1.11947289	     -0.20718279	      0.62412430	      1.12561562	     -0.32237180	      0.54492994	      1.12287737	     -0.26157529	      0.62698159	      1.11027623	     -0.26804602	      0.71436158	      0.99570256	     -0.27602703	      0.58921500	      0.66876000	     -0.25536800	      0.58278500	      0.67121900	     -0.18898100	      0.58276400	      0.67873500	     -0.31458600	      0.50522100	      0.36569800	     -0.19399000	      0.67518900	      0.37558200	     -0.29059400	      0.27787100	      0.12703200	     -0.18468400	      0.76137100	      0.06187300	     -0.29310500	      0.65055200	      0.73615200	     -0.24813400	      0.65056800	      0.73048000	     -0.15335500	      0.65053600	      0.74182400	     -0.34291300	      0.50780400	      0.77942800	     -0.22681000	      0.50309100	      0.77624400	     -0.28154100	      0.50526200	      0.36486000	     -0.14349700	      0.67266900	      0.37087900	     -0.34030800	      0.51238000	      0.35551200	     -0.24333500	      0.68868400	      0.37708800	     -0.23612500	      0.27284700	      0.13308800	     -0.15212200	      0.75123400	      0.05935200	     -0.32598600	      0.28164700	      0.13653100	     -0.21107600	      0.75858200	      0.06690700	     -0.26490800	      0.55160700	      1.12520500	     -0.26235500	      0.63546800	      1.08168800	     -0.19969600	      0.62643700	      1.07867000	     -0.32890100	      0.62519600	      1.06854600	     -0.26632300	      0.64577500	      0.92613900	     -0.26356500	      0.52845100	      0.45128000	     -0.06556600	      0.77185600	      0.50756900	     -0.34069800	      0.57695500	      0.50169400	     -0.13260100	      0.68962900	      0.54875300	     -0.28636200	      0.56991900	      0.41856000	     -0.14641200	      0.70810400	      0.46503500	     -0.27187500	      0.33319400	      0.22299900	     -0.08145200	      0.81036600	      0.17945200	     -0.34340800	      0.37870400	      0.25012500	     -0.14170400	      0.74196500	      0.21934500	     -0.31601600	      0.32010700	      0.04437100	     -0.19497500	      0.85321100	      0.04419900	     -0.30906800	      7.10697990	     34.91967300	      3.23844290	      0.33729657	      0.00000000	     -0.20940062	    -41.91991148	    274.50448556	     13.00725030	      0.74106104	      0.00000000	     -0.29232120	      0.00000000	     -0.04111282	      0.00000000	      0.00000000	      0.00210016	      0.00000000	      0.58921504	      0.66875982	     -0.25536832	      0.58278501	      0.67121851	     -0.18898146	      0.58276373	      0.67873544	     -0.31458563	      0.50522071	      0.36569813	     -0.19398972	      0.67518944	      0.37558219	     -0.29059383	      0.27787137	      0.12703191	     -0.18468443	      0.76137096	      0.06187349	     -0.29310483	      0.65055156	      0.73615217	     -0.24813397	      0.65056765	      0.73048002	     -0.15335467	      0.65053552	      0.74182427	     -0.34291327	      0.50780404	      0.77942753	     -0.22680965	      0.50309122	      0.77624363	     -0.28154129	      0.50526184	      0.36486000	     -0.14349671	      0.67266870	      0.37087920	     -0.34030831	      0.51237965	      0.35551152	     -0.24333513	      0.68868351	      0.37708801	     -0.23612496	      0.27284700	      0.13308764	     -0.15212168	      0.75123435	      0.05935197	     -0.32598552	      0.28164694	      0.13653080	     -0.21107624	      0.75858188	      0.06690740	     -0.26490769	      0.55160737	      1.12520540	     -0.26235467	      0.63546783	      1.08168805	     -0.19969635	      0.62643701	      1.07866967	     -0.32890087	      0.62519640	      1.06854570	     -0.26632312	      0.64577502	      0.92613894	     -0.26356512	      0.52845085	      0.45128006	     -0.06556560	      0.77185553	      0.50756896	     -0.34069830	      0.57695526	      0.50169408	     -0.13260114	      0.68962944	      0.54875290	     -0.28636229	      0.56991905	      0.41856024	     -0.14641176	      0.70810425	      0.46503466	     -0.27187490	      0.33319446	      0.22299874	     -0.08145184	      0.81036645	      0.17945246	     -0.34340844	      0.37870410	      0.25012478	     -0.14170438	      0.74196458	      0.21934520	     -0.31601563	      0.32010707	      0.04437145	     -0.19497475	      0.85321069	      0.04419870	     -0.30906838
      0.71667000	      0.64422022	      0.72189387	     -0.25295825	     -4.02482375	      3.75891589	      1.23989980	     -9.18973454	     -3.37097131	     -0.71488890	    -31.91265383	    -11.65792263	     20.70826887	      7.27789305	     -5.62088667	     -1.63707552	    -13.57783483	     -3.54961621	     -7.45724720	      5.50890659	      0.00000000	      0.00000000	      0.00000000	      0.00000000	      0.74927948	      0.69783150	     -0.17626070	      0.75176853	      0.70089131	     -0.36305115	      0.65441105	      0.72119135	     -0.25317886	      0.62068425	      0.77737239	     -0.25076211	      0.61966650	      0.77349686	     -0.30555047	      0.59041292	      0.67334651	     -0.19421259	      0.58834282	      0.68150024	     -0.31580086	      0.58937787	      0.67742337	     -0.25500672	      0.54976283	      0.33464852	     -0.13698826	      0.54681947	      0.33464314	     -0.23745704	      0.58572378	      0.43435501	     -0.06742383	      0.63837164	      0.47485264	     -0.13797227	      0.61784669	      0.39285510	     -0.14669830	      0.29926943	      0.10265223	     -0.12714940	      0.30687327	      0.10209651	     -0.18677745	      0.36375629	      0.19318458	     -0.06356214	      0.41026544	      0.21797583	     -0.12734563	      0.51643923	      0.35224880	     -0.19505367	      0.29033550	      0.12637944	     -0.19246975	      0.32837333	     -0.00216226	     -0.15577197	      0.72057135	      0.36295242	     -0.37050894	      0.73208206	      0.36153615	     -0.26702627	      0.83262283	      0.48780838	     -0.36906487	      0.76164730	      0.53333198	     -0.30868072	      0.76529321	      0.44612600	     -0.29941911	      0.77137462	      0.04716587	     -0.35525632	      0.77834920	      0.05243173	     -0.29218121	      0.84046124	      0.16238259	     -0.36811799	      0.77281733	      0.20629776	     -0.34090462	      0.67870480	      0.36809875	     -0.29651998	      0.76167859	      0.06006304	     -0.27713212	      0.87437705	      0.01705909	     -0.33350662	      0.63691187	      1.12058664	     -0.20884260	      0.63264593	      1.12669463	     -0.32400301	      0.55394326	      1.12427335	     -0.26255800	      0.63589209	      1.11136699	     -0.26969576	      0.72278086	      0.99646853	     -0.27834271	      0.59695600	      0.66988400	     -0.25666300	      0.59035000	      0.67216100	     -0.19041600	      0.59048000	      0.68011500	     -0.31599400	      0.51917700	      0.36410100	     -0.19305400	      0.68056500	      0.37663400	     -0.29170300	      0.28756100	      0.13102600	     -0.18368300	      0.76199600	      0.06154300	     -0.29307500	      0.65835000	      0.73712100	     -0.24927200	      0.65825200	      0.73111600	     -0.15447400	      0.65844800	      0.74312500	     -0.34407100	      0.51570800	      0.78064600	     -0.22733200	      0.51090000	      0.77772600	     -0.28203100	      0.51904900	      0.36369800	     -0.14255600	      0.67786100	      0.37185300	     -0.34140100	      0.52726100	      0.35257800	     -0.24176100	      0.69365600	      0.37718500	     -0.23933000	      0.28254400	      0.13731900	     -0.15116400	      0.75210400	      0.05913000	     -0.32603800	      0.29103900	      0.14051500	     -0.20978900	      0.75903900	      0.06677600	     -0.26538400	      0.56038200	      1.12659000	     -0.26350300	      0.64445700	      1.08277800	     -0.20176600	      0.63520200	      1.07995700	     -0.33016000	      0.63404300	      1.06985600	     -0.26774900	      0.65447800	      0.92731000	     -0.26546300	      0.54001700	      0.45097100	     -0.06534200	      0.77821900	      0.50757200	     -0.34235800	      0.58831600	      0.50137700	     -0.13243200	      0.69708500	      0.54902700	     -0.28886400	      0.58280700	      0.41783800	     -0.14519000	      0.71438400	      0.46500100	     -0.27465100	      0.34443000	      0.22619400	     -0.08052600	      0.81318500	      0.17838500	     -0.34310800	      0.39083200	      0.25160300	     -0.14059100	      0.74510800	      0.21917600	     -0.31661100	      0.32465200	      0.04609100	     -0.19458400	      0.85379100	      0.04303200	     -0.30875300	      4.11992815	     25.23265554	      2.36909596	      0.33980490	      0.00000000	     -0.20971884	    -43.36193368	    285.06581010	     17.62127171	      0.74353491	      0.00000000	     -0.29324277	      0.00000000	     -0.06411160	      0.00000000	      0.00000000	      0.00333765	      0.00000000	      0.59695554	      0.66988361	     -0.25666273	      0.59035045	      0.67216146	     -0.19041643	      0.59048021	      0.68011522	     -0.31599361	      0.51917750	      0.36410069	     -0.19305405	      0.68056524	      0.37663355	     -0.29170310	      0.28756052	      0.13102587	     -0.18368290	      0.76199633	      0.06154278	     -0.29307514	      0.65835035	      0.73712069	     -0.24927235	      0.65825242	      0.73111635	     -0.15447415	      0.65844828	      0.74312502	     -0.34407055	      0.51570761	      0.78064585	     -0.22733150	      0.51089978	      0.77772588	     -0.28203148	      0.51904851	      0.36369812	     -0.14255582	      0.67786086	      0.37185302	     -0.34140050	      0.52726144	      0.35257825	     -0.24176139	      0.69365561	      0.37718457	     -0.23932952	      0.28254369	      0.13731878	     -0.15116398	      0.75210387	      0.05912974	     -0.32603824	      0.29103884	      0.14051482	     -0.20978869	      0.75903946	      0.06677635	     -0.26538393	      0.56038195	      1.12659001	     -0.26350290	      0.64445716	      1.08277822	     -0.20176582	      0.63520199	      1.07995725	     -0.33015993	      0.63404334	      1.06985557	     -0.26774931	      0.65447772	      0.92731017	     -0.26546320	      0.54001701	      0.45097122	     -0.06534164	      0.77821946	      0.50757188	     -0.34235793	      0.58831555	      0.50137699	     -0.13243228	      0.69708514	      0.54902709	     -0.28886381	      0.58280665	      0.41783795	     -0.14519010	      0.71438408	      0.46500063	     -0.27465144	      0.34442958	      0.22619420	     -0.08052578	      0.81318516	      0.17838457	     -0.34310797	      0.39083222	      0.25160259	     -0.14059080	      0.74510819	      0.21917649	     -0.31661069	      0.32465202	      0.04609121	     -0.19458382	      0.85379130	      0.04303228	     -0.30875325
